<?xml version="1.0" encoding="UTF-8" standalone="no"?>
<!-- Created with Inkscape (http://www.inkscape.org/) -->

<svg
   xmlns:dc="http://purl.org/dc/elements/1.1/"
   xmlns:cc="http://creativecommons.org/ns#"
   xmlns:rdf="http://www.w3.org/1999/02/22-rdf-syntax-ns#"
   xmlns:svg="http://www.w3.org/2000/svg"
   xmlns="http://www.w3.org/2000/svg"
   xmlns:sodipodi="http://sodipodi.sourceforge.net/DTD/sodipodi-0.dtd"
   xmlns:inkscape="http://www.inkscape.org/namespaces/inkscape"
   version="1.1"
   id="svg10"
   width="34.880001"
   height="34.880001"
   viewBox="0 0 34.880001 34.880001"
   sodipodi:docname="f_logo_h-109px.svg"
   inkscape:version="0.92.1 r15371">
  <metadata
     id="metadata16">
    <rdf:RDF>
      <cc:Work
         rdf:about="">
        <dc:format>image/svg+xml</dc:format>
        <dc:type
           rdf:resource="http://purl.org/dc/dcmitype/StillImage" />
        <dc:title></dc:title>
      </cc:Work>
    </rdf:RDF>
  </metadata>
  <defs
     id="defs14" />
  <sodipodi:namedview
     pagecolor="#ffffff"
     bordercolor="#666666"
     borderopacity="1"
     objecttolerance="10"
     gridtolerance="10"
     guidetolerance="10"
     inkscape:pageopacity="0"
     inkscape:pageshadow="2"
     inkscape:window-width="1366"
     inkscape:window-height="705"
     id="namedview12"
     showgrid="false"
     inkscape:zoom="15.366972"
     inkscape:cx="17.440001"
     inkscape:cy="17.440001"
     inkscape:window-x="-8"
     inkscape:window-y="-8"
     inkscape:window-maximized="1"
     inkscape:current-layer="svg10" />
  <g
     id="g20"
     transform="translate(-4.7232283e-7,-2.0173135)">
    <path
       style="fill:#fee99c;stroke-width:0.32000002"
       d="M 1.4095961,26.61015 0.80000002,25.89015 1.52,26.499746 c 0.6766224,0.57287 0.8656771,0.830404 0.6095961,0.830404 -0.060722,0 -0.3847222,-0.324 -0.72,-0.72 z m 8.5911029,-3.6 c -0.00355,-0.704 0.05907,-1.029679 0.139167,-0.723731 0.08009,0.305948 0.083,0.881948 0.0065,1.28 -0.07654,0.398052 -0.142072,0.147731 -0.145624,-0.556269 z M 1.1384439,21.919993 c -0.09863,-0.159587 0.1088717,-0.214792 0.4611146,-0.122678 0.7471959,0.195396 0.8416469,0.412835 0.179327,0.412835 -0.253613,0 -0.5418117,-0.130571 -0.6404416,-0.290157 z m 1.7668194,-1.49651 c 0.015355,-0.372781 0.091181,-0.448608 0.1933333,-0.193333 0.092439,0.231 0.08107,0.507 -0.025263,0.613333 -0.1063333,0.106333 -0.1819649,-0.08267 -0.1680703,-0.42 z m 0.9599999,-4.48 c 0.015354,-0.372782 0.091181,-0.448608 0.1933334,-0.193333 0.092439,0.231 0.08107,0.507 -0.025264,0.613333 -0.1063334,0.106333 -0.1819651,-0.08267 -0.1680704,-0.42 z m 0.1747369,-1.348612 c -0.086774,-0.140403 -0.025478,-0.464403 0.1362144,-0.72 C 4.405746,13.512036 4.4712744,13.568004 4.4751,14.13015 4.48014,14.870321 4.3175576,15.043969 4.0400001,14.594871 Z"
       id="path34"
       inkscape:connector-curvature="0" />
    <path
       style="fill:#ef98a4;stroke-width:0.32000002"
       d="m 18.960699,25.25015 c -0.0036,-0.704 0.05907,-1.029679 0.139167,-0.723731 0.08009,0.305948 0.083,0.881948 0.0065,1.28 -0.07654,0.398052 -0.142073,0.147731 -0.145625,-0.556269 z m 3.439302,0.01888 c 0,-0.605613 0.11065,-1.1695 0.245889,-1.253082 0.135239,-0.08358 0.192114,0.411919 0.126389,1.101114 -0.147563,1.547334 -0.372278,1.639066 -0.372278,0.151968 z m 6.31852,0.701115 c -0.08247,-0.22 -0.036,-0.688 0.103272,-1.04 0.206208,-0.521171 0.257401,-0.446902 0.275717,0.4 0.02339,1.081518 -0.121652,1.326449 -0.378989,0.64 z m 3.68588,-3.669626 c 0.486419,-0.07355 1.206419,-0.07159 1.6,0.0044 0.393581,0.07596 -0.0044,0.136136 -0.8844,0.133733 -0.88,-0.0024 -1.20202,-0.06455 -0.7156,-0.138101 z M 18.369533,17.25015 c 4.16e-4,-2.816 0.04936,-3.925163 0.108789,-2.464806 0.05943,1.460356 0.0591,3.764357 -7.36e-4,5.12 -0.05983,1.355643 -0.108458,0.160806 -0.108053,-2.655194 z M 8.0000002,9.2893319 c 0,-0.06645 0.252,-0.3184499 0.56,-0.56 C 9.0675382,8.3312932 9.0788566,8.3426116 8.6808178,8.8501495 8.2627798,9.3831889 8.0000002,9.5527028 8.0000002,9.2893319 Z"
       id="path32"
       inkscape:connector-curvature="0" />
    <path
       style="fill:#ea7586;stroke-width:0.32000002"
       d="m 23.742384,24.93015 c 0.0065,-0.528 0.07824,-0.70526 0.159374,-0.39391 0.08113,0.31135 0.0758,0.74335 -0.01186,0.96 -0.08766,0.21665 -0.154039,-0.03809 -0.147518,-0.56609 z m 7.560634,-0.64 c -0.20626,-0.958875 -0.106535,-1.390185 0.241061,-1.042589 0.101243,0.101243 0.134885,0.593243 0.07476,1.093334 L 31.50952,25.25015 Z m 3.38578,-6.88 c 0,-2.728 0.04908,-3.844 0.109062,-2.48 0.05998,1.364 0.05998,3.596 0,4.96 -0.05998,1.364 -0.109062,0.248 -0.109062,-2.48 z M 14.64,10.15822 c 0.22,-0.08877 0.58,-0.08877 0.8,0 0.22,0.08877 0.04,0.161403 -0.4,0.161403 -0.44,0 -0.62,-0.07263 -0.4,-0.161403 z"
       id="path30"
       inkscape:connector-curvature="0" />
    <path
       style="fill:#fdcb05;stroke-width:0.32000002"
       d="M 3.0241356,27.520039 C 0.9527647,26.617806 -0.32960526,24.119308 0.15237596,21.924862 0.27019484,21.388436 1.418149,18.719889 2.7033853,15.994756 l 2.3367931,-4.954786 2.4399111,5.195845 c 2.7285955,5.810606 3.0307925,7.401251 1.7921034,9.43294 -1.1547667,1.894041 -4.127618,2.77489 -6.2480573,1.851284 z M 2.5525178,21.739166 c 0.3678213,-0.443198 1.9091844,-6.809415 1.9003726,-7.849016 -0.00372,-0.438362 -2.1346002,3.84162 -3.1436915,6.314253 -0.67053523,1.643049 0.2304344,2.755214 1.2433189,1.534763 z"
       id="path28"
       inkscape:connector-curvature="0" />
    <path
       style="fill:#e54f64;stroke-width:0.32000002"
       d="m 24.720699,25.25015 c -0.0036,-0.704 0.05907,-1.029679 0.139167,-0.723731 0.08009,0.305948 0.083,0.881948 0.0065,1.28 -0.07654,0.398052 -0.142073,0.147731 -0.145625,-0.556269 z m 7.68,-0.96 c -0.0036,-0.704 0.05907,-1.029679 0.139168,-0.723731 0.08009,0.305948 0.083,0.881948 0.0065,1.28 -0.07655,0.398052 -0.14208,0.147731 -0.145632,-0.556269 z m -6.160698,0.673611 c 0,-0.06951 0.563887,-0.180164 1.253082,-0.245889 0.689196,-0.06573 1.184697,-0.0089 1.101115,0.126389 -0.15208,0.24607 -2.354197,0.357851 -2.354197,0.1195 z M 23.168797,17.41015 c 0,-2.728 0.04908,-3.844 0.109062,-2.48 0.05999,1.364 0.05999,3.596 0,4.96 -0.05998,1.364 -0.109062,0.248 -0.109062,-2.48 z m 6.715537,-0.8 c 5.44e-4,-2.288 0.05153,-3.182012 0.113266,-1.986692 0.06174,1.19532 0.06128,3.06732 -10e-4,4.16 -0.06229,1.092681 -0.112802,0.114692 -0.112242,-2.173308 z m -3.704333,-6.458597 c 0.231,-0.09244 0.507,-0.08107 0.613333,0.02526 0.106333,0.106334 -0.08267,0.181965 -0.42,0.16807 -0.372782,-0.01535 -0.448608,-0.09118 -0.193333,-0.193333 z"
       id="path26"
       inkscape:connector-curvature="0" />
    <path
       style="fill:#e12f49;stroke-width:0.32000002"
       d="m 19.914242,25.41015 c 0,-0.616 0.06585,-0.868 0.146343,-0.56 0.08049,0.308 0.08049,0.812 0,1.12 -0.08049,0.308 -0.146343,0.056 -0.146343,-0.56 z m 1.6,0 c 0,-0.616 0.06585,-0.868 0.146343,-0.56 0.08049,0.308 0.08049,0.812 0,1.12 -0.08049,0.308 -0.146343,0.056 -0.146343,-0.56 z M 26.000001,6.9495651 c 0.308,-0.080489 0.812,-0.080489 1.12,0 0.308,0.080489 0.056,0.1463434 -0.56,0.1463434 -0.616,0 -0.868,-0.065854 -0.56,-0.1463434 z"
       id="path24"
       inkscape:connector-curvature="0" />
    <path
       style="fill:#dc0a28;stroke-width:0.32000002"
       d="m 19.200001,25.101409 c 0,-0.882567 0.17045,-1.358567 0.56,-1.563856 0.639229,-0.336868 3.919458,-0.28328 4.496676,0.07346 0.210828,0.130299 0.383324,0.833208 0.383324,1.562021 0,1.492651 -0.526267,1.308834 -0.695377,-0.242885 -0.07761,-0.712135 -0.290522,-0.986402 -0.824623,-1.062256 -0.645469,-0.09167 -0.72,0.03255 -0.72,1.2 0,0.716241 -0.144,1.302256 -0.32,1.302256 -0.176,0 -0.32,-0.348223 -0.32,-0.773828 0,-1.176437 -0.32771,-1.786172 -0.96,-1.786172 -0.632291,0 -0.96,0.609735 -0.96,1.786172 0,0.425605 -0.144,0.773828 -0.32,0.773828 -0.176,0 -0.32,-0.570933 -0.32,-1.268741 z m 6.64,0.923109 c -0.334535,-0.194848 -0.56,-0.709042 -0.56,-1.277129 0,-1.225711 1.178857,-1.871854 2.4,-1.315464 1.218298,0.555093 1.031033,1.338225 -0.32,1.338225 -0.822159,0 -1.12,0.13878 -1.12,0.521869 0,0.423006 0.22733,0.486396 1.2,0.334615 1.103821,-0.172248 1.150214,-0.149956 0.578838,0.27813 -0.722027,0.540957 -1.392417,0.577803 -2.178838,0.119754 z m 1.84,-1.894368 c -0.108774,-0.176 -0.477273,-0.32 -0.818886,-0.32 -0.341613,0 -0.621114,0.144 -0.621114,0.32 0,0.176 0.368498,0.32 0.818885,0.32 0.464438,0 0.733282,-0.138509 0.621115,-0.32 z m 1.498669,1.081135 c 0.0767,-0.92826 0.293217,-1.321576 0.890614,-1.617827 0.933625,-0.462987 1.305174,-0.266493 0.567266,0.299998 -0.284202,0.218182 -0.56169,0.817589 -0.61664,1.332016 -0.159013,1.488639 -0.964286,1.475058 -0.84124,-0.01419 z m 3.061331,0.813233 c -0.383781,-0.223531 -0.56,-0.723954 -0.56,-1.590269 0,-1.607873 0.568608,-1.65989 0.700682,-0.0641 0.07883,0.952415 0.243644,1.220544 0.798835,1.299572 0.598297,0.08516 0.714054,-0.07332 0.8,-1.095264 0.132912,-1.580459 0.900483,-1.865017 0.900483,-0.333832 0,1.770968 -1.232419,2.603733 -2.64,1.783893 z M 11.093334,21.996816 C 10.976,21.879483 10.88,21.579449 10.88,21.330075 10.88,21.0807 10.004478,19.038877 8.9343961,16.792689 7.0570261,12.851942 7.0013666,12.662013 7.3473445,11.377149 7.827565,9.593746 9.4543433,8.0253821 11.397056,7.4728541 c 2.110454,-0.6002352 5.987863,-0.5377142 7.984676,0.1287485 1.473672,0.4918576 1.747584,0.4968707 3.000232,0.05491 1.826644,-0.6444771 6.536533,-0.6419712 8.368693,0.00445 0.765117,0.2699488 1.737779,0.8099488 2.161475,1.2 1.428435,1.3150124 1.647869,2.3881514 1.647869,8.0589044 v 5.290278 h -1.528797 c -2.765546,0 -2.889522,-0.237142 -3.00818,-5.754028 -0.09628,-4.476562 -0.150368,-4.837276 -0.826579,-5.512648 -1.047743,-1.0464433 -4.225189,-1.0464183 -5.272889,4.2e-5 -0.683362,0.682554 -0.729196,1.015555 -0.825091,5.994667 L 22.99693,22.21015 h -2.218465 -2.218464 v -5.28 c 0,-4.802842 -0.05623,-5.336225 -0.622152,-5.902152 -1.18323,-1.1832296 -4.269972,-1.2528619 -5.516851,-0.124452 -0.517527,0.468356 -0.580998,1.114665 -0.580998,5.9162 0,4.923723 -0.126048,5.797689 -0.746666,5.17707 z"
       id="path22"
       inkscape:connector-curvature="0" />
  </g>
</svg>
